<?xml version="1.0" encoding="utf-8"?>
<!-- Generator: Adobe Illustrator 24.2.0, SVG Export Plug-In . SVG Version: 6.00 Build 0)  -->
<svg version="1.1" id="Laag_1" xmlns="http://www.w3.org/2000/svg" xmlns:xlink="http://www.w3.org/1999/xlink" x="0px" y="0px"
	 viewBox="0 0 54.4 54.4" style="enable-background:new 0 0 54.4 54.4;" xml:space="preserve">
<style type="text/css">
	.st0{clip-path:url(#SVGID_2_);}
	.st1{fill:none;stroke:#FFFFFF;stroke-miterlimit:10;}
</style>
<g>
	<defs>
		<rect id="SVGID_1_" width="54.4" height="54.4"/>
	</defs>
	<clipPath id="SVGID_2_">
		<use xlink:href="#SVGID_1_"  style="overflow:visible;"/>
	</clipPath>
	<g class="st0">
		<g>
			<line class="st1" x1="123.3" y1="-10" x2="46" y2="67.4"/>
		</g>
		<g>
			<line class="st1" x1="120.5" y1="-10" x2="43.1" y2="67.4"/>
		</g>
		<g>
			<line class="st1" x1="117.7" y1="-10" x2="40.3" y2="67.4"/>
		</g>
		<g>
			<line class="st1" x1="114.8" y1="-10" x2="37.5" y2="67.4"/>
		</g>
		<g>
			<line class="st1" x1="112" y1="-10" x2="34.6" y2="67.4"/>
		</g>
		<g>
			<line class="st1" x1="109.2" y1="-10" x2="31.8" y2="67.4"/>
		</g>
		<g>
			<line class="st1" x1="106.3" y1="-10" x2="29" y2="67.4"/>
		</g>
		<g>
			<line class="st1" x1="103.5" y1="-10" x2="26.1" y2="67.4"/>
		</g>
		<g>
			<line class="st1" x1="100.7" y1="-10" x2="23.3" y2="67.4"/>
		</g>
		<g>
			<line class="st1" x1="97.8" y1="-10" x2="20.5" y2="67.4"/>
		</g>
		<g>
			<line class="st1" x1="95" y1="-10" x2="17.6" y2="67.4"/>
		</g>
		<g>
			<line class="st1" x1="92.2" y1="-10" x2="14.8" y2="67.4"/>
		</g>
		<g>
			<line class="st1" x1="89.3" y1="-10" x2="12" y2="67.4"/>
		</g>
		<g>
			<line class="st1" x1="86.5" y1="-10" x2="9.1" y2="67.4"/>
		</g>
		<g>
			<line class="st1" x1="83.7" y1="-10" x2="6.3" y2="67.4"/>
		</g>
		<g>
			<line class="st1" x1="80.8" y1="-10" x2="3.5" y2="67.4"/>
		</g>
		<g>
			<line class="st1" x1="78" y1="-10" x2="0.6" y2="67.4"/>
		</g>
		<g>
			<line class="st1" x1="75.2" y1="-10" x2="-2.2" y2="67.4"/>
		</g>
		<g>
			<line class="st1" x1="72.3" y1="-10" x2="-5" y2="67.4"/>
		</g>
		<g>
			<line class="st1" x1="69.5" y1="-10" x2="-7.9" y2="67.4"/>
		</g>
		<g>
			<line class="st1" x1="66.7" y1="-10" x2="-10.7" y2="67.4"/>
		</g>
		<g>
			<line class="st1" x1="63.8" y1="-10" x2="-13.6" y2="67.4"/>
		</g>
		<g>
			<line class="st1" x1="61" y1="-10" x2="-16.4" y2="67.4"/>
		</g>
		<g>
			<line class="st1" x1="58.2" y1="-10" x2="-19.2" y2="67.4"/>
		</g>
		<g>
			<line class="st1" x1="55.3" y1="-10" x2="-22.1" y2="67.4"/>
		</g>
		<g>
			<line class="st1" x1="52.5" y1="-10" x2="-24.9" y2="67.4"/>
		</g>
		<g>
			<line class="st1" x1="49.6" y1="-10" x2="-27.7" y2="67.4"/>
		</g>
		<g>
			<line class="st1" x1="46.8" y1="-10" x2="-30.6" y2="67.4"/>
		</g>
		<g>
			<line class="st1" x1="44" y1="-10" x2="-33.4" y2="67.4"/>
		</g>
		<g>
			<line class="st1" x1="41.1" y1="-10" x2="-36.2" y2="67.4"/>
		</g>
		<g>
			<line class="st1" x1="38.3" y1="-10" x2="-39.1" y2="67.4"/>
		</g>
		<g>
			<line class="st1" x1="35.5" y1="-10" x2="-41.9" y2="67.4"/>
		</g>
		<g>
			<line class="st1" x1="32.6" y1="-10" x2="-44.7" y2="67.4"/>
		</g>
		<g>
			<line class="st1" x1="29.8" y1="-10" x2="-47.6" y2="67.4"/>
		</g>
		<g>
			<line class="st1" x1="27" y1="-10" x2="-50.4" y2="67.4"/>
		</g>
		<g>
			<line class="st1" x1="24.1" y1="-10" x2="-53.2" y2="67.4"/>
		</g>
		<g>
			<line class="st1" x1="21.3" y1="-10" x2="-56.1" y2="67.4"/>
		</g>
		<g>
			<line class="st1" x1="18.5" y1="-10" x2="-58.9" y2="67.4"/>
		</g>
		<g>
			<line class="st1" x1="15.6" y1="-10" x2="-61.7" y2="67.4"/>
		</g>
		<g>
			<line class="st1" x1="12.8" y1="-10" x2="-64.6" y2="67.4"/>
		</g>
		<g>
			<line class="st1" x1="10" y1="-10" x2="-67.4" y2="67.4"/>
		</g>
	</g>
</g>
</svg>
