<?xml version="1.0" encoding="utf-8"?>
<!-- Generator: Adobe Illustrator 24.2.0, SVG Export Plug-In . SVG Version: 6.00 Build 0)  -->
<svg version="1.1" id="Laag_1" xmlns="http://www.w3.org/2000/svg" xmlns:xlink="http://www.w3.org/1999/xlink" x="0px" y="0px"
	 viewBox="0 0 96.5 125.1" style="enable-background:new 0 0 96.5 125.1;" xml:space="preserve">
<style type="text/css">
	.st0{fill:#FFFFFF;}
</style>
<path class="st0" d="M61.6,45.9c0.1-0.9,0.1-1.7,0.2-2.5c0.3-1.9,0.6-3.7,0.9-5.6c0.4-2.6,0.5-5.2,1-7.8c0.7-3.4,1.6-6.7,2.5-10
	c1-4,2.2-7.9,3.2-11.9c0.6-2.3,0.9-4.6,1.3-6.9C70.8,0.7,70.9,0.4,71,0c0.1,0,0.1,0,0.2,0c0.1,0.7,0.2,1.4,0.3,2.1
	C72,5.4,72.6,8.7,73,12c0.4,3.3,0.8,6.7,1.1,10c0.4,4.8,0.8,9.6,1.1,14.4c0.3,4,0.5,8.1,0.9,12.1c0.4,3.4,0.1,6.8,0.1,10.3
	c0,3.2,0.2,6.4,0.2,9.6c0.1,4.7-0.1,9.5-1.6,14c-0.6,1.7-0.9,3.6-1.4,5.3c-0.3,1.1-0.7,2.3-1.2,3.3c-1,2-1.6,4.1-2.9,6
	c-2.3,3.2-5.2,5.6-9,6.7c-0.6,0.2-1.1,0.4-1.7,0.6c-1.7,0.7-3.5,1-5.4,1c-1.4,0-2.8,0.2-4.2,0.1c-3.5-0.3-6.8-1.1-9.9-2.8
	c-3-1.6-5.8-3.4-8.3-5.7c-1.8-1.6-3.3-3.5-4.6-5.5c-0.2-0.3-0.4-0.7-0.5-1.1c-1-3.2-2-6.4-2.9-9.6c-0.7-2.8-1.3-5.7-1.8-8.6
	c-0.6-3.6-1.1-7.2-1.7-10.7c-0.8-5.1-1.5-10.2-2.3-15.3C16.5,40.8,16,35.4,16.1,30c0.1-3,0-6-0.1-9c-0.1-4.2-0.2-8.5-0.3-12.7
	c0-0.4,0-0.8,0.1-1.2c0.3,0.4,0.6,0.8,0.8,1.3c1.8,3.8,3.6,7.6,5.4,11.3c2.2,4.5,4.3,9,6.5,13.5c1.3,2.8,2.7,5.5,4.1,8.2
	c0.4,0.9,1,1.7,1.6,2.5c0.3,0.3,0.8,0.5,1.2,0.5c2.8,0.2,5.6,0.3,8.4,0.5c2.1,0.1,4.1,0.3,6.2,0.5c3.7,0.2,7.5,0.3,11.2,0.5
	C61.4,45.9,61.5,45.9,61.6,45.9 M51.3,78.6c0.8-0.1,1.5-0.1,2.2-0.2c0.1,0,0.3-0.2,0.4-0.4c0.1-0.3,0-0.5,0-0.8
	c-0.2-1.9-0.5-3.9-0.7-5.8c-0.4-3.2-0.3-6.5-0.9-9.7c-0.4-2.1-0.7-4.2-1-6.3c0-0.3-0.2-0.5-0.3-0.8c-0.1,0-0.1,0-0.2,0.1
	c-0.1,0.3-0.1,0.7-0.2,1c-1,3.3-2.1,6.5-3.1,9.8c-1.3,4.3-2.6,8.5-3.9,12.8c-0.1,0.4,0,0.6,0.4,0.6c0.6,0,1.1,0,1.7,0
	c0.2,0,0.4-0.2,0.4-0.4c0.1-0.6,0.1-1.1,0.1-1.7c0.1-0.5,0.2-1,0.3-1.4c0.1-0.2,0.3-0.3,0.5-0.3c0.1,0,0.4,0.2,0.4,0.3
	c0.1,0.4,0.3,0.8,0.3,1.3c0.1,0.7,0.1,1.4,0.2,2.2h1.3c0-0.4,0-0.9,0-1.3c0.1-0.6,0.2-1.3,0.3-1.9c0.1-0.4,0.3-0.8,0.8-0.8
	c0.5,0,0.7,0.4,0.8,0.8c0.1,0.2,0.1,0.5,0.1,0.8C51.3,77.1,51.3,77.8,51.3,78.6 M29,74.6c0.1,0,0.2,0.1,0.3,0.1c3,0,6,0.3,8.9-0.2
	c1.4-0.2,2.7-0.6,3.1-2.2c0.3-1.4,0.1-2.5-1.5-2.5c-3.1-0.1-6.2,0-9.3,0c-0.4,0-0.9,0.1-1.3,0.1C29.1,71.5,29,73,29,74.6 M63.4,73.2
	c0.3,0,0.7,0,1,0c2.1-0.1,4.2-0.2,6.3-0.5c0.8-0.1,1.6-0.6,2.2-1.1c0.7-0.6,0.7-1.7,0.2-2.2c-0.5-0.4-1-0.7-1.7-0.7
	c-2.4,0-4.8-0.1-7.2-0.1c-0.2,0-0.5,0-0.6,0C63.5,70.2,63.4,71.7,63.4,73.2 M48.6,86.4c-1.7-0.1-3.3-0.1-4.9-0.2
	c-0.1,0-0.3,0.2-0.3,0.3c-0.1,0.9-0.2,1.8-0.4,2.8C43,89.8,43.1,90,43.6,90c1.2,0,2.5,0.1,3.7,0.2c0.3,0,0.6,0,1,0
	C48.4,88.9,48.5,87.7,48.6,86.4 M49.2,90.2c1.5,0.1,2.9,0.2,4.3,0.2c0.1-1.3,0.2-2.5,0.3-3.7c-1.5-0.1-2.9-0.3-4.3-0.4
	C49.4,87.7,49.3,89,49.2,90.2 M38.5,86.3c-0.1,1.1-0.2,2.1-0.3,3.2c1.4,0.2,2.7,0.3,4,0.5c0.1-1.3,0.2-2.5,0.3-3.6H38.5z M54.4,90.6
	c1.2,0.1,2.3,0.2,3.3,0.3c0.4,0,0.5-0.1,0.6-0.5c0-0.6,0.1-1.2,0.1-1.8c0.1-1.2,0.1-1.2-1.1-1.4c-0.4-0.1-0.8-0.1-1.2-0.2
	c-0.4-0.1-0.9-0.1-1.4-0.2C54.6,88.1,54.5,89.3,54.4,90.6 M61,73.3c0.1-1.6,0.2-2.9,0.3-4.4c-1.4,0.1-2.6,0.4-3.6,1.3
	C57,70.8,57,72,58,72.4C58.9,72.8,59.9,72.9,61,73.3 M48.8,85.8c0-0.7,0.1-1.4,0.1-2.2c-1.8-0.1-3.6-0.1-5.4-0.2v2.4H48.8z M59,90.9
	c1.1,0.1,2.2,0.2,3.4,0.2c0.1-1.1,0.2-2.1,0.3-3.2c-1.2-0.2-2.2-0.4-3.4-0.5C59.2,88.6,59.1,89.7,59,90.9 M37.4,89.3
	c0.1-1,0.2-2,0.2-2.9h-3.5c0,0.9-0.1,1.8-0.1,2.7C35.2,89.2,36.3,89.3,37.4,89.3 M53.9,86.3V84c-1.4-0.1-2.7-0.2-4.2-0.2
	c0,0.8-0.1,1.4-0.1,2.2C51.1,86,52.4,86.2,53.9,86.3 M58.5,86.9c0.1-0.9,0.2-1.7,0.3-2.5c-1.3-0.1-2.6-0.2-4-0.3c0,0.7,0,1.4,0,2
	c0,0.1,0.2,0.4,0.3,0.4C56.2,86.6,57.3,86.7,58.5,86.9 M42.6,83.5c-0.7,0-1.3,0-2,0c-2.1,0-2.1,0-2.1,2.2c0,0,0,0.1,0,0.1h4V83.5z
	 M59.6,84.4c-0.1,0.8-0.2,1.5-0.2,2.3c0,0.1,0.2,0.3,0.3,0.4c1,0.2,2.1,0.3,3.1,0.4c0.1-0.7,0.1-1.4,0.2-2.2c0-0.1-0.1-0.3-0.2-0.4
	C61.6,84.7,60.6,84.5,59.6,84.4 M34.1,85.9c1.1,0,2.2,0,3.2,0c0.1,0,0.4-0.2,0.4-0.4c0.1-0.6,0.1-1.2,0.1-1.8c-1.2,0-2.3,0-3.4,0
	c-0.1,0-0.3,0.2-0.3,0.3C34.1,84.7,34.1,85.3,34.1,85.9 M26.8,74.4c0.1-1.4,0.1-2.8,0.2-4.2c-1.5,0.1-2.4,1-2.4,2.1
	C24.6,73.3,25.6,74.3,26.8,74.4 M63.2,91.2c0.8,0,1.6-0.1,2.4-0.1c0.1,0,0.2-0.2,0.3-0.3c0.1-0.7,0.1-1.4,0.2-2.1
	c-0.9-0.1-1.7-0.3-2.6-0.4C63.4,89.2,63.3,90.1,63.2,91.2 M66.1,88.1c0-0.8,0-1.6,0-2.3c0-0.2-0.2-0.4-0.4-0.5
	c-0.6-0.2-1.2-0.3-1.9-0.4c-0.1,0.9-0.1,1.8-0.2,2.7C64.4,87.8,65.2,88,66.1,88.1"/>
<path class="st0" d="M82.4,10.2c0-2.7,0.1-5.4,0.1-8.1c0-0.4,0-0.7,0.1-1c0.1-0.2,0.3-0.4,0.5-0.3c0.7,0.1,1.4,0.8,1.5,1.5
	c0.1,0.9,0.1,1.9,0.2,2.8c0,0.3,0,0.5,0.1,0.8C85,6.2,85.2,6.6,84.8,7c-0.1,0.1-0.1,0.3-0.1,0.5c0,2.5,0.1,5,0.1,7.5
	c0.1,4.1,0.1,8.2,0.5,12.3c0.3,2.9,0.3,5.8,0.3,8.8c0,1.7-0.1,3.5-0.2,5.2c0,0.2,0,0.3-0.1,0.5c-0.1,0.2-0.3,0.4-0.5,0.5
	c-0.2,0-0.5-0.1-0.6-0.3c-0.7-0.8-0.9-1.8-1-2.9c-0.2-4-0.3-7.9-0.5-11.9c-0.1-1.9-0.4-3.8-0.4-5.7C82.3,17.8,82.3,14,82.4,10.2
	C82.3,10.2,82.4,10.2,82.4,10.2"/>
<path class="st0" d="M85.1,71.4c1.6,0.6,3.3,1.2,4.9,1.8c2,0.9,4,1.9,5.9,2.8c0.4,0.2,0.7,0.5,0.7,1c-0.1,1-0.5,1.4-1.5,1
	c-2.6-1-5.2-1.9-7.6-3.1c-1.5-0.8-3.2-1.2-4.8-1.8c-1.5-0.6-1.5-0.8-0.6-2.1c1.4-2.1,3.4-3.6,5.2-5.3c0.3-0.3,0.6-0.6,1-0.9
	c0.2-0.1,0.4-0.2,0.7-0.3c0.1,0,0.2-0.1,0.3-0.1c0.4-0.4,0.9-0.8,1.4-1.3c-0.9-0.5-1.7-1-2.6-1.4c-1.8-0.9-3.7-1.7-5.5-2.5
	c-0.5-0.2-0.7-0.5-0.6-1.1c0.1-0.4,0-0.8-0.1-1.2c-0.1-0.6,0.2-0.9,0.7-0.7c0.9,0.3,1.8,0.6,2.6,1c2.5,1.1,5,2.2,7.2,3.7
	c0.3,0.2,0.6,0.4,0.9,0.6c0.2,0.1,0.4,0.1,0.6,0.2c0.2,0.1,0.4,0.1,0.4,0.2c0.1,0.1,0,0.3,0,0.5c-0.1,0.2-0.2,0.4-0.4,0.6
	c-1.9,1.9-3.8,3.8-5.8,5.6C87.1,69.6,86.1,70.5,85.1,71.4"/>
<path class="st0" d="M63,110.2c-0.2,0.6-0.3,1.2-0.5,1.8c-0.5,2.1-1.5,4.1-2.4,6c-0.3,0.5-1.2,0.6-1.6,0.1c-0.7-0.9-1.4-1.8-2-2.8
	c-0.7-1-1.4-2.1-2.1-3.1c-0.2-0.3-0.4-0.5-0.6-0.7c0.2,2.6,0.5,5.1,0.6,7.7c0.1,1.5,0.1,3,0.1,4.6c0,0.3,0,0.6-0.2,0.9
	c-0.2,0.3-0.5,0.5-0.8,0.5c-0.4,0.1-0.7-0.2-0.7-0.6c-0.3-1.8-0.6-3.7-0.7-5.5c-0.2-2.8-0.2-5.6-0.2-8.4c0-0.5,0.2-1,0.5-1.5
	c0.4-0.7,1.1-0.7,1.7,0c1.4,1.8,2.9,3.6,4.3,5.4c0.3,0.4,0.6,0.8,0.9,1.3c0.4-1.1,0.7-2.1,1-3.2c0.5-1.4,0.9-2.8,1.5-4.1
	c0.2-0.5,0.9-0.9,1.4-1.2c0.4-0.2,0.9,0,1,0.4c0.4,1,0.7,2,0.9,3c0.6,3,1.2,6.1,1.7,9.1c0.2,1.1,0.1,2.2,0.2,3.3
	c0,0.1,0,0.3-0.1,0.4c-0.2,0.2-0.4,0.5-0.7,0.5c-0.2,0-0.5-0.3-0.6-0.5c-0.3-1-0.6-2-0.8-3.1c-0.5-2.6-1-5.1-1.4-7.7
	c-0.2-0.9-0.3-1.7-0.4-2.6C63.1,110.2,63,110.2,63,110.2"/>
<path class="st0" d="M89,92.1c-2.7-1-5.4-1.9-8.2-2.8c-0.3,1.3-0.6,2.5-0.9,3.6c-0.1,0.2-0.1,0.4-0.1,0.6c0,0.1,0,0.2,0,0.2
	c-0.1,0.3-1.3,0.7-1.5,0.6c-0.6-0.4-1.2-0.9-1-1.8c0.5-2.8,1.1-5.6,1.6-8.4c0-0.1,0.1-0.3,0.1-0.4c0.2-1.1,0.2-1.2,1.3-1.1
	c0.4,0,0.7,0.1,1,0.2c0.3,0.1,0.4,0.3,0.3,0.6c-0.1,0.3-0.1,0.6-0.1,0.9c0,1,0,2,0,2.9c2.6,0.8,5.3,1.7,8,2.5
	c0.2-0.8,0.3-1.7,0.5-2.5c0.1-0.4,0.2-0.7,0.3-1.1c0.2-0.4,0.5-0.8,1-0.7c0.9,0.3,1.3,0.6,1.2,1.3c-0.2,1.2-0.5,2.3-0.7,3.5
	c-0.3,2.1-0.6,4.3-1,6.4c0,0.2-0.1,0.4-0.1,0.6c-0.2,0.8-0.4,0.9-1.2,0.7c-1.6-0.5-1.7-0.7-1.4-2.3C88.6,94.4,88.8,93.2,89,92.1"/>
<path class="st0" d="M71.4,101.6c0.2,0.1,0.6,0.1,1,0.2c3.5,0.6,6.7,1.9,9.9,3.4c1.2,0.5,2.3,1.1,3.5,1.7c0.2,0.1,0.4,0.2,0.4,0.3
	c0.1,0.2,0.2,0.6,0.2,0.8c-0.1,0.2-0.5,0.3-0.7,0.3c-0.7-0.1-1.4-0.3-2.1-0.6c-0.8-0.3-1.6-0.6-2.5-0.8c-0.2-0.1-0.5,0-0.6,0.1
	c-1.1,0.8-2.2,1.7-3.2,2.5c-0.1,0.1-0.2,0.1-0.3,0.2c-1,0.9-1.1,1.2-0.6,2.5c0.5,1.2,1,2.3,1.5,3.5c0.1,0.4,0.3,0.8,0.2,1.2
	c-0.1,0.7-0.7,0.9-1.3,0.5c-1-0.7-1.5-1.7-2-2.8c-1.6-3.7-3.1-7.4-4.7-11.1C69.7,102.5,70.2,101.6,71.4,101.6 M75,108.8
	c1-1.1,1.9-2.1,2.8-3.1c-1.5-0.6-3.4-1.2-5.4-2C73.3,105.5,74.2,107.2,75,108.8"/>
<path class="st0" d="M6.2,68c1.1,0,2.5,0,3.8,0c1.4-0.1,2.7-0.2,4.1-0.3c0.5,0,1,0,1.5,0.1c0.2,0,0.4,0.3,0.6,0.4
	c-0.2,0.2-0.3,0.5-0.5,0.6c-0.9,0.2-1.8,0.4-2.7,0.5c-3,0.2-6,0.4-8.9,0.6c-0.5,0-1.1,0-1.6-0.1c-0.2,0-0.6-0.3-0.6-0.4
	c0-0.3,0-0.7,0.2-0.9c0.9-0.9,1.9-1.8,2.9-2.8c0.8-0.7,1.6-1.5,2.5-2.2c1-0.9,2-1.8,3-2.6c0.1-0.1,0.2-0.2,0.3-0.4
	c-0.2,0-0.2,0-0.3,0c-2.2,0.3-4.4,0-6.5-0.1c-0.8,0-1.6-0.1-2.4-0.2c-0.5,0-0.6-0.3-0.5-0.7c0.1-0.7,0.5-1.1,1.2-1.2
	c3.4-0.4,6.8-0.1,10.2,0.1c0.5,0,0.9,0.1,1.3,0.2c0.6,0.1,0.7,0.4,0.3,0.8c-0.7,0.9-1.4,1.7-2.2,2.6C10.1,63.9,8.2,65.9,6.2,68"/>
<path class="st0" d="M38.8,109.2c-0.9,2.1-1.8,4.2-2.7,6.3c0.9,0.4,1.8,0.8,2.7,1.2c0.1,0.1,0.3,0.1,0.4,0.2
	c0.1,0.2,0.2,0.4,0.3,0.6c-0.2,0.1-0.4,0.3-0.6,0.3c-0.6-0.1-1.1-0.3-1.6-0.5c-0.7-0.2-1.3-0.2-1.9,0.2c-0.1,0.1-0.2,0.2-0.3,0.4
	c0,0.1,0.1,0.3,0.2,0.4c1.2,0.6,2.3,1.2,3.5,1.8c0.7,0.3,0.8,0.6,0.5,1.3c-0.7,1.5-0.7,1.5-2.2,0.9c-1.1-0.4-2.1-0.9-3.2-1.3
	c-1.1-0.5-1.2-0.7-0.8-1.9c1.1-2.9,2.1-5.8,3.2-8.7c0.5-1.3,0.9-2.6,1.4-4c0.3-0.8,0.8-1,1.5-0.6c1.5,0.9,3,1.8,4.4,2.7
	c0.3,0.2,0.6,0.3,0.8,0.5c0.2,0.2,0.4,0.5,0.4,0.7c0,0.2-0.2,0.6-0.4,0.7c-0.5,0.1-1,0.2-1.5,0.1C41.4,110.2,40.2,109.7,38.8,109.2"
	/>
<path class="st0" d="M22.7,103.7c-0.4,0.3-0.8,0.6-1.2,0.9c-1.5,1.1-3.1,2.2-4.6,3.3c-0.3,0.2-0.7,0.4-1,0c-0.3-0.4-0.1-0.7,0.2-1
	c3.2-2.5,6.4-5.1,9.6-7.6c0.4-0.3,0.8-0.7,1.3-1c0.1-0.1,0.4-0.1,0.5,0c0.5,0.4,1.2,0.9,1.5,1.4c0.6,0.9,1.2,1.8,1.6,2.8
	c0.4,1-0.1,1.7-1.1,2c-1.5,0.5-2.8,0.2-4.1-0.6c-0.1-0.1-0.3-0.2-0.4-0.3c0,0,0,0,0,0c-0.4,1.8-0.8,3.5-1.3,5.3
	c-0.3,1.1-0.7,2.2-1,3.4c-0.1,0.2-0.1,0.5-0.3,0.6c-0.1,0.2-0.4,0.3-0.6,0.3c-0.2,0-0.4-0.3-0.4-0.5c-0.1-0.4-0.1-0.8-0.1-1.2
	c0.3-2,0.6-4.1,1-6.1c0.1-0.6,0.4-1.1,0.6-1.7C22.7,103.8,22.7,103.7,22.7,103.7 M24.9,102.2c0.9,0.7,1.8,1.5,3,1.5
	c0.7,0,0.9-0.2,1-0.9c0.1-1.2-0.9-1.9-1.5-2.7C26.5,100.8,25.8,101.4,24.9,102.2"/>
<path class="st0" d="M1.6,51.2c-0.3,0-0.7,0-1.1-0.1c-0.5-0.2-0.5-0.5-0.3-0.9c0.6-1,1.7-1.4,2.6-1.9C3.4,48,4.1,48,4.4,47.6
	c0.3-0.4,0-1.1,0-1.7c0-0.7,0-1.4-0.1-2.1c0-0.2-0.2-0.5-0.4-0.5c-0.7-0.4-1.5-0.6-2.2-1C1,42,0.5,41.5,0.3,40.7
	c0-0.2,0-0.5,0.1-0.5C0.5,40.1,0.8,40,1,40.1c2.7,1.1,5.4,2.3,8.1,3.4c0.9,0.4,1.8,0.8,2.7,1.3c1,0.5,1.1,0.9,0.2,1.7
	c-1.3,1.2-2.9,2-4.5,2.7c-1.8,0.7-3.6,1.3-5.3,2C2,51.2,1.8,51.2,1.6,51.2 M9.2,45.9c0-0.1,0-0.1,0-0.2c-0.9-0.4-1.8-0.9-2.8-1.4
	v2.6C7.4,46.6,8.3,46.2,9.2,45.9"/>
<path class="st0" d="M18.7,89.8c-0.4-1.1-0.9-2.1-1.3-3.2c-0.1-0.2-0.2-0.4-0.3-0.7c-0.1-0.5,0.1-0.9,0.6-1.2
	c0.5-0.2,0.9-0.1,1.1,0.3c0.5,0.9,1,1.8,1.5,2.8c0.6,1.4,1.2,2.8,1.8,4.2c0.2,0.5,0.4,1,0.7,1.4c0.4,0.7,0.3,1.4-0.3,1.9
	c-0.2,0.1-0.5,0.1-0.7,0.1c-1.2-0.5-1.7-1.6-2.2-2.7c-0.1-0.3-0.2-0.6-0.3-1c-1.7,0.6-3.3,1.1-4.9,1.7c-1.1,0.4-2.3,0.9-3.4,1.4
	c-0.5,0.2-1,0.5-1.5,0.8c-0.4,0.2-0.8,0.2-1-0.3c-0.1-0.4-0.2-0.8,0.2-1.3c1.1-1.3,2.8-1.6,4.2-2.2C14.7,91.1,16.7,90.5,18.7,89.8"
	/>
<path class="st0" d="M4.1,29.9c1.3,0.6,2.5,1.2,3.8,1.8c1.1,0.5,2.3,1.1,3.4,1.6c0.7,0.3,0.8,0.6,0.6,1.1c-0.4,0.7-1,1-1.6,0.7
	C8.7,34.5,7,34,5.5,33.3c-1.5-0.6-3-1.4-4.5-2.1c-0.1,0-0.1-0.1-0.2-0.1c-1-0.7-1.1-1.2,0-1.7c3-1.5,6.1-3,9.1-4.5
	c0.2-0.1,0.3-0.1,0.5-0.2c0.2-0.2,0.4-0.6,0.8-0.2c0.3,0.4,0.6,0.9,0.2,1.3c-0.5,0.6-1.2,1.1-1.8,1.5c-1.6,0.9-3.3,1.6-5,2.4
	C4.4,29.7,4.3,29.8,4.1,29.9"/>
<path class="st0" d="M86.3,51.3c-1.7-0.1-2-0.8-2-2.4c-0.1-1.1,1.2-2.3,2.4-2.3c1,0,2.2,1.3,2.1,2.3C88.6,50.5,88,51.3,86.3,51.3"/>
<path class="st0" d="M12.1,79.4c0,0.9-1,1.8-1.9,1.8c-0.7,0-1.5-0.9-1.4-1.6c0-0.7,1-1.5,1.8-1.5C11.5,78.1,12.1,78.6,12.1,79.4"/>
</svg>
